<mxfile host="app.diagrams.net" modified="2023-05-14T08:34:19.419Z" agent="Mozilla/5.0 (Macintosh; Intel Mac OS X 10_15_7) AppleWebKit/537.36 (KHTML, like Gecko) Chrome/110.0.0.0 Safari/537.36" version="21.3.0" etag="DS5xXp2KIVseRN9I9Z1K" type="github">
  <diagram name="第 1 页" id="P7iiv1cosKqgZDMKRiRn">
    <mxGraphModel>
      <root>
        <mxCell id="0" />
        <mxCell id="1" parent="0" />
      </root>
    </mxGraphModel>
  </diagram>
</mxfile>
